<?xml version="1.0" encoding="utf-8"?>
<!-- Generator: Adobe Illustrator 15.0.0, SVG Export Plug-In . SVG Version: 6.00 Build 0)  -->
<!DOCTYPE svg PUBLIC "-//W3C//DTD SVG 1.1//EN" "http://www.w3.org/Graphics/SVG/1.1/DTD/svg11.dtd">
<svg version="1.1" id="Layer_1" xmlns="http://www.w3.org/2000/svg" xmlns:xlink="http://www.w3.org/1999/xlink" x="0px" y="0px"
	 width="104.667px" height="139.234px" viewBox="0 0 104.667 139.234" enable-background="new 0 0 104.667 139.234"
	 xml:space="preserve">
<rect x="51.43" y="11.234" fill="#269AC0" width="2" height="16"/>
<g>
	<path fill="#269AC0" d="M52.846,12.83c-3.217,0-5.834-2.617-5.834-5.834s2.617-5.834,5.834-5.834s5.834,2.617,5.834,5.834
		S56.063,12.83,52.846,12.83z M52.846,4.162c-1.562,0-2.834,1.271-2.834,2.834s1.271,2.834,2.834,2.834s2.834-1.271,2.834-2.834
		S54.409,4.162,52.846,4.162z"/>
</g>
<path fill="#2BB5E2" d="M51.865,123.922c-8.498,0-16.148-3.594-21.566-9.334c-0.633-0.669-0.924-1.365-1.445-2.092
	c-0.859-1.199-1.425-0.887-1.425,0.626v2.739v5.123v2.738c0,1.513,0.562,3.444,1.433,4.392c0.526,0.572,0.926,1.123,1.535,1.652
	c5.793,5.019,13.271,8.066,21.52,8.066c8.197,0,15.693-3.01,21.47-7.972c0.569-0.487,1.062-0.993,1.647-1.516
	c0.965-0.865,1.396-2.975,1.396-4.476v-2.717v-5.166v-2.716c0-1.501-0.399-1.63-1.372-0.517c-0.588,0.674-1.174,1.322-1.77,1.947
	C67.875,120.376,60.304,123.922,51.865,123.922"/>
<path fill="#269AC0" d="M52.342,24.197c3.873,0,7.359,1.638,9.83,4.254c0.287,0.305,0.396,0.623,0.634,0.953
	c0.393,0.547,0.625,0.404,0.625-0.285v-1.248v-2.335v-1.249c0-0.689-0.229-1.57-0.63-2.001c-0.239-0.261-0.409-0.513-0.688-0.753
	c-2.641-2.288-6.043-3.678-9.803-3.678c-3.736,0-7.148,1.372-9.782,3.634c-0.257,0.222-0.84,0.452-1.107,0.69
	c-0.439,0.395-0.991,1.355-0.991,2.04v1.238v2.354v1.239c0,0.683,0.541,0.741,0.984,0.233c0.268-0.307,0.711-0.603,0.982-0.887
	C44.863,25.812,48.494,24.197,52.342,24.197"/>
<path fill="#269AC0" d="M51.865,110.972c-8.498,0-16.148-3.595-21.566-9.333c-0.633-0.669-0.924-1.367-1.445-2.094
	c-0.859-1.197-1.425-0.886-1.425,0.626v2.74v5.121v2.739c0,1.513,0.562,3.444,1.433,4.393c0.526,0.571,0.926,1.122,1.535,1.651
	c5.793,5.02,13.271,8.066,21.52,8.066c8.197,0,15.693-3.01,21.47-7.972c0.569-0.486,1.062-0.992,1.647-1.516
	c0.965-0.864,1.396-2.974,1.396-4.475v-2.718v-5.165v-2.717c0-1.501-0.399-1.63-1.372-0.516c-0.588,0.673-1.174,1.322-1.77,1.946
	C67.875,107.426,60.304,110.972,51.865,110.972"/>
<path fill="#2BB5E2" d="M5.096,71c0,26.142,21.193,47.333,47.334,47.333c26.143,0,47.334-21.191,47.334-47.333
	c0-26.143-21.191-47.334-47.334-47.334C26.289,23.666,5.096,44.857,5.096,71"/>
<g>
	<g>
		<defs>
			<path id="SVGID_1_" d="M5.096,71c0,26.141,21.193,47.332,47.334,47.332c26.143,0,47.334-21.19,47.334-47.332
				c0-26.143-21.191-47.334-47.334-47.334C26.289,23.667,5.096,44.857,5.096,71"/>
		</defs>
		<clipPath id="SVGID_2_">
			<use xlink:href="#SVGID_1_"  overflow="visible"/>
		</clipPath>
		<g clip-path="url(#SVGID_2_)">
			<g opacity="0.1">
				<g>
					<defs>
						<rect id="SVGID_3_" x="27.693" y="18.833" width="48.902" height="104.5"/>
					</defs>
					<clipPath id="SVGID_4_">
						<use xlink:href="#SVGID_3_"  overflow="visible"/>
					</clipPath>
					<path clip-path="url(#SVGID_4_)" fill="#FFFFFF" d="M76.596,71.082c0,28.857-10.947,52.25-24.451,52.25
						c-13.506,0-24.451-23.393-24.451-52.25c0-28.856,10.945-52.25,24.451-52.25C65.648,18.832,76.596,42.225,76.596,71.082"/>
				</g>
			</g>
			<g>
				<defs>
					<path id="SVGID_5_" d="M5.096,71c0,26.141,21.193,47.332,47.334,47.332c26.143,0,47.334-21.19,47.334-47.332
						c0-26.143-21.191-47.334-47.334-47.334C26.289,23.667,5.096,44.857,5.096,71"/>
				</defs>
				<clipPath id="SVGID_6_">
					<use xlink:href="#SVGID_5_"  overflow="visible"/>
				</clipPath>
				<g clip-path="url(#SVGID_6_)">
					<g opacity="0.7">
						<g>
							<defs>
								<rect id="SVGID_7_" x="1.271" y="45.234" width="101.457" height="66.096"/>
							</defs>
							<clipPath id="SVGID_8_">
								<use xlink:href="#SVGID_7_"  overflow="visible"/>
							</clipPath>
							<path clip-path="url(#SVGID_8_)" fill="#269AC0" d="M52.562,111.33c27-0.014,48.575-20.751,50.167-47.119
								C89.453,52.17,71.5,45.234,52.499,45.234h-1c-19.334,0-36.952,6.936-50.228,18.977c1.592,26.368,23.463,46.896,50.228,46.908
								"/>
						</g>
					</g>
				</g>
				<g opacity="0.1" clip-path="url(#SVGID_6_)">
					<g>
						<g>
							<defs>
								<rect id="SVGID_9_" x="39.43" y="117.234" width="24" height="22"/>
							</defs>
							<clipPath id="SVGID_10_">
								<use xlink:href="#SVGID_9_"  overflow="visible"/>
							</clipPath>
							<rect x="39.43" y="117.234" clip-path="url(#SVGID_10_)" fill="#ADDCE5" width="24" height="22"/>
						</g>
					</g>
				</g>
				<path clip-path="url(#SVGID_6_)" fill="#A6D5E3" d="M53.145,108.498c27-0.014,48.422-20.419,50.015-46.787
					C89.882,49.67,71.93,43.234,52.93,43.234h-1c-19.334,0-36.953,6.436-50.229,18.477c1.591,26.368,23.463,46.646,50.229,46.658"/>
				<path clip-path="url(#SVGID_6_)" fill="#223C43" d="M39.75,72.498c0,4.144,1.566,7.5,3.5,7.5s3.5-3.356,3.5-7.5
					c0-4.143-1.566-7.5-3.5-7.5S39.75,68.355,39.75,72.498"/>
				<path clip-path="url(#SVGID_6_)" fill="#223C43" d="M57.75,72.498c0,4.144,1.566,7.5,3.5,7.5c1.935,0,3.5-3.356,3.5-7.5
					c0-4.143-1.565-7.5-3.5-7.5C59.316,64.998,57.75,68.355,57.75,72.498"/>
				<g opacity="0.2" clip-path="url(#SVGID_6_)">
					<g>
						<g>
							<defs>
								<rect id="SVGID_11_" x="14.336" y="50.713" width="17.662" height="48.696"/>
							</defs>
							<clipPath id="SVGID_12_">
								<use xlink:href="#SVGID_11_"  overflow="visible"/>
							</clipPath>
							<path clip-path="url(#SVGID_12_)" fill="#FFFFFF" d="M31.998,99.409c-3.361-8.2-5.662-19.47-5.662-32.327
								c0-5.827,0.473-11.329,1.301-16.368c-4.592,1.708-8.902,3.865-12.895,6.472c-0.264,3.203-0.406,6.505-0.406,9.896
								c0,6.203,0.457,12.121,1.312,17.646C19.783,90.836,25.363,95.864,31.998,99.409"/>
						</g>
					</g>
				</g>
			</g>
		</g>
	</g>
</g>
</svg>
